HIERARCHY
ROOT Torso
{
	OFFSET 0.000000 0.000000 0.000000
	CHANNELS 6 Xposition Yposition Zposition Zrotation Yrotation Xrotation
	JOINT TorsoExt
	{
		OFFSET 0.000000 0.000000 0.000000
		CHANNELS 6 Xposition Yposition Zposition Zrotation Yrotation Xrotation
		JOINT LeftHip
		{
			OFFSET 0.000000 0.010000 -0.060000
			CHANNELS 3 Zrotation Yrotation Xrotation
			JOINT LeftThigh
			{
				OFFSET 0.055000 0.000000 -0.055000
				CHANNELS 6 Xposition Yposition Zposition Zrotation Yrotation Xrotation
				JOINT LeftLeg
				{
					OFFSET 0.000000 -0.015000 -0.120000
					CHANNELS 6 Xposition Yposition Zposition Zrotation Yrotation Xrotation
					JOINT LeftFoot
					{
						OFFSET 0.000000 0.010000 -0.100000
						CHANNELS 6 Xposition Yposition Zposition Zrotation Yrotation Xrotation
						End Site
						{
							OFFSET 0.000000 -0.090000 -0.035000
						}
					}
				}
			}
		}
		JOINT RightHip
		{
			OFFSET 0.000000 0.010000 -0.060000
			CHANNELS 3 Zrotation Yrotation Xrotation
			JOINT RightThigh
			{
				OFFSET -0.055000 0.000000 -0.055000
				CHANNELS 6 Xposition Yposition Zposition Zrotation Yrotation Xrotation
				JOINT RightLeg
				{
					OFFSET 0.000000 -0.015000 -0.120000
					CHANNELS 6 Xposition Yposition Zposition Zrotation Yrotation Xrotation
					JOINT RightFoot
					{
						OFFSET 0.000000 0.010000 -0.100000
						CHANNELS 6 Xposition Yposition Zposition Zrotation Yrotation Xrotation
						End Site
						{
							OFFSET 0.000000 -0.090000 -0.035000
						}
					}
				}
			}
		}
	}
	JOINT Neck
	{
		OFFSET 0.000000 -0.000000 0.040000
		CHANNELS 6 Xposition Yposition Zposition Zrotation Yrotation Xrotation
		JOINT Head
		{
			OFFSET 0.000000 -0.000000 0.100000
			CHANNELS 6 Xposition Yposition Zposition Zrotation Yrotation Xrotation
			End Site
			{
				OFFSET 0.000000 -0.000000 0.070000
			}
		}
	}
	JOINT LeftUpperarm
	{
		OFFSET 0.098000 -0.000000 0.075000
		CHANNELS 6 Xposition Yposition Zposition Zrotation Yrotation Xrotation
		JOINT LeftLowerarm
		{
			OFFSET 0.000000 -0.090000 0.009000
			CHANNELS 6 Xposition Yposition Zposition Zrotation Yrotation Xrotation
			End Site
			{
				OFFSET 0.000000 -0.105000 0.000000
			}
		}
	}
	JOINT RightUpperarm
	{
		OFFSET -0.098000 -0.000000 0.075000
		CHANNELS 6 Xposition Yposition Zposition Zrotation Yrotation Xrotation
		JOINT RightLowerarm
		{
			OFFSET 0.000000 -0.090000 0.009000
			CHANNELS 6 Xposition Yposition Zposition Zrotation Yrotation Xrotation
			End Site
			{
				OFFSET 0.000000 -0.105000 0.000000
			}
		}
	}
}
MOTION
Frames: 9
Frame Time: 0.041667
0.000000 0.000000 0.000000 -1.641980 -3.783551 -5.188219 0.000000 0.000000 0.000000 0.000000 -0.000001 -0.000002 -31.493063 2.576832 12.723550 0.055000 0.000000 -0.055000 -153.535112 -14.388514 19.091622 -0.000000 -0.015000 -0.120000 0.000087 -0.000018 -36.083548 -0.000000 0.010000 -0.100000 -179.804293 25.645228 -28.786973 34.501895 -5.273879 13.295471 -0.055000 -0.000000 -0.055000 140.257183 -9.193070 34.738339 -0.000001 -0.015000 -0.120000 -0.000069 0.000013 -63.981114 -0.000000 0.010000 -0.100000 168.882288 -24.819009 -17.839623 0.000001 0.000000 0.040000 -4.376480 0.000001 -0.000000 0.000000 -0.000000 0.100000 0.000000 -0.000000 27.258612 0.098000 0.000000 0.075000 148.793403 -1.062047 86.256137 -0.000000 -0.090000 0.009000 -21.522597 -7.127748 2.801464 -0.098000 0.000000 0.075000 -164.604800 -1.234135 84.912898 -0.000000 -0.090000 0.009000 17.675794 4.785196 1.522791 
0.000000 0.000000 0.000000 -1.491888 -3.745634 -5.120215 0.000000 0.000000 0.000000 0.000000 -0.000000 -0.000001 -31.493053 2.576833 12.723544 0.055000 0.000000 -0.055000 -153.584016 -14.407020 18.350123 0.000000 -0.015000 -0.120000 0.000024 0.000055 -35.371869 -0.000000 0.010000 -0.100000 -179.797312 25.645987 -28.778302 34.501912 -5.273852 13.295468 -0.055000 0.000000 -0.055000 140.152162 -9.149349 34.695206 0.000000 -0.015000 -0.120000 -0.000012 -0.000072 -61.712474 -0.000000 0.010000 -0.100000 168.864447 -24.895372 -18.237172 -0.000000 -0.000000 0.040000 -4.426413 0.000000 -0.000000 0.000000 -0.000000 0.100000 -0.000000 0.000001 26.611846 0.098000 0.000000 0.075000 148.994593 -0.764574 86.349581 -0.000000 -0.090000 0.009000 -21.380365 -7.032642 2.744277 -0.098000 -0.000000 0.075000 -164.686434 -1.120791 84.910876 -0.000000 -0.090000 0.009000 17.734977 4.817605 1.538549 
0.000000 0.000000 0.000000 -1.238432 -4.009567 -5.050390 0.000000 0.000000 0.000000 0.000000 0.000000 -0.000001 -31.493067 2.576833 12.723542 0.055000 -0.000000 -0.055000 -153.745864 -14.752999 17.840968 -0.000000 -0.015000 -0.120000 0.000016 -0.000001 -35.056547 0.000000 0.010000 -0.100000 -179.926526 25.630498 -29.053565 34.501898 -5.273896 13.295463 -0.055000 -0.000000 -0.055000 139.956477 -9.476422 34.716260 0.000000 -0.015000 -0.120000 0.000009 0.000038 -59.448478 -0.000000 0.010000 -0.100000 168.750451 -24.934785 -18.418969 -0.000000 0.000000 0.040000 -4.543894 0.000001 -0.000000 0.000000 -0.000000 0.100000 0.000001 0.000000 26.132290 0.098000 0.000000 0.075000 148.422497 -0.861869 86.630629 -0.000000 -0.090000 0.009000 -21.489534 -7.105574 2.788096 -0.098000 -0.000000 0.075000 -165.354877 -1.432997 84.984110 0.000000 -0.090000 0.009000 17.812625 4.860381 1.559420 
0.000000 0.000000 0.000000 -1.211249 -3.568004 -4.772112 0.000000 0.000000 0.000000 -0.000000 -0.000000 -0.000001 -31.493063 2.576831 12.723540 0.055000 0.000000 -0.055000 -153.673191 -14.273908 17.477085 0.000000 -0.015000 -0.120000 0.000029 -0.000028 -34.510648 0.000000 0.010000 -0.100000 -179.958218 25.627010 -29.092036 34.501895 -5.273899 13.295469 -0.055000 -0.000000 -0.055000 140.476282 -8.989907 34.755459 0.000000 -0.015000 -0.120000 -0.000012 0.000015 -57.111317 0.000000 0.010000 -0.100000 168.940180 -25.061383 -19.102919 0.000000 -0.000000 0.040000 -4.600145 0.000000 0.000000 -0.000000 -0.000000 0.100000 0.000000 0.000000 26.360587 0.098000 0.000000 0.075000 148.198658 -0.240503 86.751100 -0.000000 -0.090000 0.009000 -21.514741 -7.122520 2.798302 -0.098000 0.000000 0.075000 -165.775740 -1.103506 85.567503 -0.000000 -0.090000 0.009000 17.688178 4.791957 1.526076 
0.000000 0.000000 0.000000 -1.104581 -3.916976 -4.710136 0.000000 0.000000 0.000000 -0.000000 0.000000 -0.000001 -31.493067 2.576851 12.723552 0.055000 -0.000000 -0.055000 -153.477943 -14.693009 16.697422 0.000000 -0.015000 -0.120000 0.000049 0.000026 -33.816991 -0.000000 0.010000 -0.100000 -180.256151 25.597507 -29.064128 34.501908 -5.273861 13.295469 -0.055000 -0.000000 -0.055000 140.382463 -9.339758 34.813112 0.000000 -0.015000 -0.120000 -0.000028 0.000036 -54.773206 -0.000000 0.010000 -0.100000 168.865977 -25.007442 -18.812400 0.000000 -0.000000 0.040000 -4.746613 0.000002 0.000000 -0.000000 -0.000000 0.100000 0.000000 0.000000 26.559102 0.098000 -0.000000 0.075000 148.196636 -0.425195 86.996919 0.000000 -0.090000 0.009000 -21.410777 -7.052960 2.756448 -0.098000 0.000000 0.075000 -165.965428 -1.473642 85.574969 0.000000 -0.090000 0.009000 17.565139 4.724850 1.493612 
0.000000 0.000000 0.000000 -1.123347 -4.007033 -4.616089 0.000000 0.000000 0.000000 0.000000 0.000000 -0.000001 -31.493067 2.576833 12.723538 0.055000 -0.000000 -0.055000 -153.164725 -14.818650 15.931768 0.000000 -0.015000 -0.120000 0.000087 0.000078 -33.179724 -0.000000 0.010000 -0.100000 -180.551229 25.568808 -28.975145 34.501895 -5.273889 13.295463 -0.055000 0.000000 -0.055000 140.627134 -9.307426 34.879543 0.000000 -0.015000 -0.120000 -0.000052 0.000019 -52.268555 0.000000 0.010000 -0.100000 168.782539 -24.988283 -18.696888 -0.000000 0.000000 0.040000 -4.615454 0.000001 -0.000000 -0.000000 0.000000 0.100000 -0.000000 0.000000 26.349949 0.098000 -0.000000 0.075000 147.662980 -0.478669 86.992035 0.000000 -0.090000 0.009000 -21.512779 -7.121230 2.797518 -0.098000 0.000000 0.075000 -166.014264 -1.503359 85.490964 -0.000000 -0.090000 0.009000 17.547786 4.715424 1.489072 
0.000000 0.000000 0.000000 -1.058973 -4.071108 -4.480507 0.000000 0.000000 0.000000 0.000000 0.000000 -0.000001 -31.493067 2.576836 12.723539 0.055000 0.000000 -0.055000 -152.947183 -14.863750 15.020669 -0.000000 -0.015000 -0.120000 0.000104 -0.000005 -32.149834 -0.000000 0.010000 -0.100000 -180.778264 25.548845 -28.650492 34.501895 -5.273891 13.295462 -0.055000 -0.000000 -0.055000 141.084483 -9.203782 34.991585 -0.000000 -0.015000 -0.120000 -0.000020 -0.000011 -49.737123 -0.000000 0.010000 -0.100000 168.620240 -25.035879 -18.897100 0.000001 -0.000000 0.040000 -4.793270 0.000001 -0.000000 0.000000 0.000000 0.100000 0.000000 0.000000 26.236454 0.098000 -0.000000 0.075000 147.299436 -0.460161 87.116119 -0.000000 -0.090000 0.009000 -21.563734 -7.155383 2.818160 -0.097999 0.000000 0.075000 -166.106335 -1.523786 85.548755 -0.000000 -0.090000 0.009000 17.526144 4.703603 1.483400 
0.000000 0.000000 0.000000 -0.858193 -4.002251 -4.290998 0.000000 0.000000 0.000000 0.000000 0.000001 0.000000 -31.493056 2.576830 12.723544 0.055000 0.000000 -0.055000 -152.614607 -14.765727 14.335939 -0.000001 -0.015000 -0.120000 0.000087 0.000015 -31.217352 -0.000001 0.010000 -0.100000 -180.811049 25.548362 -28.144969 34.501908 -5.273886 13.295473 -0.055000 -0.000000 -0.055000 141.477383 -8.946962 35.045663 -0.000000 -0.015000 -0.120000 0.000007 -0.000033 -47.067967 -0.000001 0.010000 -0.100000 168.398642 -25.115587 -19.226223 0.000000 -0.000000 0.040000 -5.165250 0.000002 -0.000000 0.000000 0.000000 0.100000 0.000001 0.000001 26.066905 0.098000 -0.000000 0.075000 147.373175 -0.316708 87.127737 -0.000000 -0.090000 0.009000 -21.488366 -7.104807 2.787630 -0.098000 -0.000000 0.075000 -166.378012 -1.435001 85.644070 -0.000001 -0.090000 0.009000 17.493535 4.685942 1.474918 
0.000000 0.000000 0.000000 -0.539285 -3.955725 -4.114098 0.000000 0.000000 0.000000 0.000000 -0.000000 -0.000002 -31.493070 2.576843 12.723543 0.055000 -0.000000 -0.055000 -152.455806 -14.670584 13.472914 0.000000 -0.015000 -0.120000 0.000001 0.000009 -30.246878 -0.000000 0.010000 -0.100000 -180.927108 25.537539 -27.894706 34.501898 -5.273895 13.295463 -0.055000 0.000000 -0.055000 141.994674 -8.770236 35.154707 0.000000 -0.015000 -0.120000 -0.000058 0.000013 -44.458149 -0.000000 0.010000 -0.100000 168.046846 -25.218431 -19.601709 0.000000 -0.000000 0.040000 -5.285582 0.000000 -0.000000 -0.000000 0.000000 0.100000 0.000000 0.000000 25.864250 0.098000 -0.000000 0.075000 146.534974 -0.148773 87.299462 0.000000 -0.090000 0.009000 -21.495877 -7.109908 2.790687 -0.098000 0.000000 0.075000 -166.817740 -1.369907 85.894178 -0.000000 -0.090000 0.009000 17.356926 4.612277 1.439732 
